# xmcd
#
# Track frame offsets: 
#        150
#        11088
#        26638
#        40390
#        49765
#        66513
#        81648
#        92348
#        107378
#        120150
#
# Disc length: 1793 seconds
#
# Revision: 2
# Processed by: cddbd v1.5.2PL0 Copyright (c) Steve Scherf et al.
# Submitted via: ExactAudioCopy v0.99pb5
#
DISCID=7a06ff0a
DTITLE=Roger Whittaker - Last Farewell
DYEAR=1900
DGENRE=Easy Listening
TTITLE0=New World in the Morning
TTITLE1=Both Sides Now
TTITLE2=Halfway Up a Mountain
TTITLE3=Water Boy
TTITLE4=The Last Farewell
TTITLE5=I Don't Believe in If Anymore
TTITLE6=Good Morning Starshine
TTITLE7=Sunrise, Sunset
TTITLE8=Whistle Stop
TTITLE9=Durham Town
EXTD=
EXTT0=Roger Wittaker
EXTT1=Roger Wittaker
EXTT2=Roger Wittaker
EXTT3=Roger Wittaker
EXTT4=Roger Wittaker
EXTT5=Roger Wittaker
EXTT6=Roger Wittaker
EXTT7=Roger Wittaker
EXTT8=Roger Wittaker
EXTT9=Roger Wittaker
PLAYORDER=
